<?xml version="1.0" encoding="UTF-8" standalone="no"?>
<!-- Created with Inkscape (http://www.inkscape.org/) -->

<svg
   xmlns:dc="http://purl.org/dc/elements/1.1/"
   xmlns:cc="http://creativecommons.org/ns#"
   xmlns:rdf="http://www.w3.org/1999/02/22-rdf-syntax-ns#"
   xmlns:svg="http://www.w3.org/2000/svg"
   xmlns="http://www.w3.org/2000/svg"
   xmlns:sodipodi="http://sodipodi.sourceforge.net/DTD/sodipodi-0.dtd"
   xmlns:inkscape="http://www.inkscape.org/namespaces/inkscape"
   width="635.69788"
   height="150.49585"
   id="svg2"
   version="1.1"
   inkscape:version="0.48.5 r10040"
   sodipodi:docname="full-logo-dark.svg">
  <defs
     id="defs4" />
  <sodipodi:namedview
     id="base"
     pagecolor="#ffffff"
     bordercolor="#666666"
     borderopacity="1.0"
     inkscape:pageopacity="0.0"
     inkscape:pageshadow="2"
     inkscape:zoom="1.979899"
     inkscape:cx="304.42279"
     inkscape:cy="31.815969"
     inkscape:document-units="px"
     inkscape:current-layer="layer1"
     showgrid="false"
     fit-margin-top="0"
     fit-margin-left="0"
     fit-margin-right="0"
     fit-margin-bottom="0"
     inkscape:window-width="1857"
     inkscape:window-height="1057"
     inkscape:window-x="-4"
     inkscape:window-y="-4"
     inkscape:window-maximized="1" />
  <metadata
     id="metadata7">
    <rdf:RDF>
      <cc:Work
         rdf:about="">
        <dc:format>image/svg+xml</dc:format>
        <dc:type
           rdf:resource="http://purl.org/dc/dcmitype/StillImage" />
        <dc:title />
      </cc:Work>
    </rdf:RDF>
  </metadata>
  <g
     inkscape:label="Layer 1"
     inkscape:groupmode="layer"
     id="layer1"
     transform="translate(-73.313416,-50.28299)">
    <rect
       style="fill:#212121;fill-opacity:1;fill-rule:nonzero;stroke:none"
       id="rect2985"
       width="635.69788"
       height="150.49585"
       x="73.313416"
       y="50.28299"
       ry="75.247925"
       rx="14.197565" />
    <rect
       style="fill:#fafafa;fill-opacity:1;fill-rule:nonzero;stroke:none"
       id="rect2987"
       width="7.5"
       height="87.5"
       x="120.65624"
       y="83.388046"
       ry="13.598988"
       rx="3.75" />
    <rect
       style="fill:#fafafa;fill-opacity:1;fill-rule:nonzero;stroke:none"
       id="rect2987-1"
       width="7.5"
       height="87.5"
       x="153.7739"
       y="83.388046"
       ry="13.598988"
       rx="3.75" />
    <rect
       style="fill:#fafafa;fill-opacity:1;fill-rule:nonzero;stroke:none"
       id="rect2987-7"
       width="7.5"
       height="87.5"
       x="139.94687"
       y="-184.71506"
       ry="13.598988"
       rx="3.75"
       transform="matrix(0,1,-1,0,0,0)" />
    <rect
       style="fill:#fafafa;fill-opacity:1;fill-rule:nonzero;stroke:none"
       id="rect2987-1-4"
       width="7.5"
       height="87.5"
       x="106.82922"
       y="-184.71506"
       ry="13.598988"
       rx="3.75"
       transform="matrix(0,1,-1,0,0,0)" />
    <rect
       style="fill:#fafafa;fill-opacity:1;fill-rule:nonzero;stroke:none"
       id="rect2987-1-0"
       width="7.5"
       height="66.964287"
       x="194.46429"
       y="82.362183"
       ry="10.407389"
       rx="3.75" />
    <path
       sodipodi:type="arc"
       style="fill:#fafafa;fill-opacity:1;fill-rule:nonzero;stroke:none"
       id="path3046"
       sodipodi:cx="198.48215"
       sodipodi:cy="166.02289"
       sodipodi:rx="4.375"
       sodipodi:ry="4.375"
       d="m 202.85715,166.02289 c 0,2.41624 -1.95876,4.375 -4.375,4.375 -2.41625,0 -4.375,-1.95876 -4.375,-4.375 0,-2.41625 1.95875,-4.375 4.375,-4.375 2.41624,0 4.375,1.95875 4.375,4.375 z" />
    <path
       id="path2992"
       style="font-size:110.71494293px;font-style:normal;font-variant:normal;font-weight:normal;font-stretch:normal;line-height:125%;letter-spacing:0px;word-spacing:0px;fill:#009688;fill-opacity:1;stroke:none;font-family:Ubuntu;-inkscape-font-specification:Ubuntu"
       d="m 247.10284,114.10077 c 1.25463,-0.81085 3.15517,-1.65948 5.70165,-2.54589 2.54642,-0.8863 5.47974,-1.32948 8.79996,-1.32954 4.1333,6e-5 7.80544,0.73831 11.01642,2.21477 3.21089,1.47657 5.92346,3.54324 8.13772,6.20001 2.21416,2.65687 3.89339,5.83064 5.03772,9.52132 1.14421,3.69076 1.71635,7.75033 1.71641,12.17871 -6e-5,4.65144 -0.68257,8.84053 -2.04753,12.56727 -1.36507,3.72678 -3.30222,6.88197 -5.81145,9.46558 -2.50934,2.58362 -5.53557,4.57652 -9.07871,5.9787 -3.54322,1.40218 -7.52902,2.10327 -11.9574,2.10327 -4.79785,0 -9.04212,-0.33224 -12.73283,-0.99673 -3.69073,-0.66449 -6.71753,-1.32898 -9.08039,-1.99346 l 0,-82.482097 10.29843,-1.770466 z m 0,46.05914 c 1.03388,0.29509 2.49181,0.57158 4.3738,0.82949 1.88194,0.25792 4.2251,0.38687 7.02949,0.38686 5.53661,1e-5 9.96559,-1.82676 13.28694,-5.48033 3.32127,-3.65354 4.98193,-8.83879 4.98197,-15.55578 -4e-5,-2.95074 -0.29569,-5.71794 -0.88692,-8.30159 -0.59133,-2.58358 -1.55089,-4.81637 -2.8787,-6.69837 -1.32789,-1.88192 -3.04373,-3.35844 -5.14752,-4.42955 -2.10388,-1.07101 -4.63231,-1.60655 -7.5853,-1.60659 -2.8044,4e-5 -5.38745,0.47983 -7.74917,1.43934 -2.36177,0.95962 -4.16996,1.95635 -5.42459,2.9902 z"
       inkscape:connector-curvature="0" />
    <path
       id="path2994"
       style="font-size:110.71494293px;font-style:normal;font-variant:normal;font-weight:normal;font-stretch:normal;line-height:125%;letter-spacing:0px;word-spacing:0px;fill:#009688;fill-opacity:1;stroke:none;font-family:Ubuntu;-inkscape-font-specification:Ubuntu"
       d="m 312.40736,169.12712 -10.29843,0 0,-57.57055 10.29843,0 z m -5.20327,-67.98049 c -1.84481,7e-5 -3.41312,-0.60867 -4.70492,-1.826213 -1.29181,-1.217406 -1.93772,-2.858915 -1.93771,-4.924531 -1e-5,-2.067719 0.6459,-3.710354 1.93771,-4.92791 1.2918,-1.217396 2.86011,-1.826134 4.70492,-1.826215 1.84478,8.1e-5 3.41308,0.608819 4.70491,1.826215 1.29179,1.217556 1.93769,2.860191 1.93771,4.92791 -2e-5,2.065616 -0.64592,3.707125 -1.93771,4.924531 -1.29183,1.217543 -2.86013,1.826283 -4.70491,1.826213 z"
       inkscape:connector-curvature="0" />
    <path
       id="path2996"
       style="font-size:110.71494293px;font-style:normal;font-variant:normal;font-weight:normal;font-stretch:normal;line-height:125%;letter-spacing:0px;word-spacing:0px;fill:#009688;fill-opacity:1;stroke:none;font-family:Ubuntu;-inkscape-font-specification:Ubuntu"
       d="m 330.22014,113.21553 c 2.36286,-0.59009 5.50003,-1.21742 9.41152,-1.88196 3.91144,-0.66443 8.41362,-0.99667 13.50656,-0.99673 4.57704,6e-5 8.3787,0.64596 11.40497,1.93771 3.02619,1.29187 5.44369,3.10006 7.25249,5.42459 1.80871,2.32463 3.08194,5.11097 3.81968,8.35903 0.73764,3.24815 1.10649,6.82849 1.10654,10.74105 l 0,32.3279 -10.29505,0 0,-30.11481 c -5e-5,-3.54316 -0.23994,-6.56939 -0.71968,-9.07871 -0.47982,-2.50925 -1.27327,-4.53875 -2.38033,-6.08851 -1.10714,-1.54968 -2.58366,-2.67536 -4.42954,-3.37706 -1.84596,-0.70161 -4.13394,-1.05244 -6.86394,-1.05249 -1.10826,5e-5 -2.25253,0.0372 -3.43281,0.1115 -1.18033,0.0744 -2.30602,0.16674 -3.37706,0.27706 -1.07109,0.11042 -2.03065,0.23938 -2.8787,0.38687 -0.84808,0.14759 -1.45682,0.25852 -1.82621,0.3328 l 0,48.60335 -10.29844,0 z"
       inkscape:connector-curvature="0" />
    <path
       id="path2998"
       style="font-size:110.71494293px;font-style:normal;font-variant:normal;font-weight:normal;font-stretch:normal;line-height:125%;letter-spacing:0px;word-spacing:0px;fill:#fafafa;fill-opacity:1;stroke:none;font-family:Ubuntu;-inkscape-font-specification:Ubuntu"
       d="m 392.80138,179.60912 -10.51805,0 37.53117,-107.170637 10.29506,0 z"
       inkscape:connector-curvature="0" />
    <path
       id="path3000"
       style="font-size:110.71494293px;font-style:normal;font-variant:normal;font-weight:normal;font-stretch:normal;line-height:125%;letter-spacing:0px;word-spacing:0px;fill:#009688;fill-opacity:1;stroke:none;font-family:Ubuntu;-inkscape-font-specification:Ubuntu"
       d="m 446.69247,114.10077 c 1.25463,-0.81085 3.15517,-1.65948 5.70165,-2.54589 2.54642,-0.8863 5.47974,-1.32948 8.79996,-1.32954 4.1333,6e-5 7.80544,0.73831 11.01642,2.21477 3.21089,1.47657 5.92346,3.54324 8.13772,6.20001 2.21416,2.65687 3.89339,5.83064 5.03772,9.52132 1.14421,3.69076 1.71635,7.75033 1.71641,12.17871 -6e-5,4.65144 -0.68257,8.84053 -2.04753,12.56727 -1.36507,3.72678 -3.30222,6.88197 -5.81145,9.46558 -2.50933,2.58362 -5.53557,4.57652 -9.07871,5.9787 -3.54322,1.40218 -7.52902,2.10327 -11.9574,2.10327 -4.79785,0 -9.04212,-0.33224 -12.73283,-0.99673 -3.69073,-0.66449 -6.71753,-1.32898 -9.08039,-1.99346 l 0,-82.482097 10.29843,-1.770466 z m 0,46.05914 c 1.03388,0.29509 2.49181,0.57158 4.3738,0.82949 1.88194,0.25792 4.2251,0.38687 7.02949,0.38686 5.53661,1e-5 9.96559,-1.82676 13.28694,-5.48033 3.32127,-3.65354 4.98193,-8.83879 4.98197,-15.55578 -4e-5,-2.95074 -0.29569,-5.71794 -0.88692,-8.30159 -0.59133,-2.58358 -1.55089,-4.81637 -2.87869,-6.69837 -1.3279,-1.88192 -3.04374,-3.35844 -5.14753,-4.42955 -2.10388,-1.07101 -4.63231,-1.60655 -7.5853,-1.60659 -2.8044,4e-5 -5.38745,0.47983 -7.74917,1.43934 -2.36177,0.95962 -4.16996,1.95635 -5.42459,2.9902 z"
       inkscape:connector-curvature="0" />
    <path
       id="path3002"
       style="font-size:110.71494293px;font-style:normal;font-variant:normal;font-weight:normal;font-stretch:normal;line-height:125%;letter-spacing:0px;word-spacing:0px;fill:#009688;fill-opacity:1;stroke:none;font-family:Ubuntu;-inkscape-font-specification:Ubuntu"
       d="m 521.18721,161.71076 c 2.43493,1e-5 4.59339,-0.0557 6.47538,-0.16725 1.88193,-0.11149 3.45023,-0.31478 4.70491,-0.60986 l 0,-17.16068 c -0.73885,-0.36939 -1.93831,-0.68305 -3.59837,-0.94099 -1.66012,-0.25788 -3.67161,-0.38684 -6.03445,-0.38686 -1.54975,2e-5 -3.19182,0.11096 -4.92622,0.3328 -1.73445,0.2219 -3.32133,0.6831 -4.76066,1.3836 -1.43937,0.70056 -2.63882,1.65956 -3.59837,2.87701 -0.95958,1.2175 -1.43936,2.82297 -1.43935,4.81641 -1e-5,3.69186 1.18086,6.25746 3.54262,7.6968 2.36173,1.43935 5.57323,2.15903 9.63451,2.15902 z m -0.88861,-51.59354 c 4.13331,6e-5 7.62131,0.53503 10.464,1.60491 2.84261,1.06999 5.13115,2.58311 6.86562,4.53935 1.73438,1.95635 2.97044,4.28149 3.70818,6.97543 0.73765,2.69404 1.10649,5.66396 1.10654,8.90977 l 0,35.98371 c -0.88528,0.14867 -2.12134,0.35195 -3.70818,0.60986 -1.58693,0.25792 -3.3771,0.49781 -5.37052,0.71968 -1.99351,0.22187 -4.15253,0.42459 -6.47707,0.60817 -2.32461,0.18358 -4.63117,0.27537 -6.91968,0.27537 -3.24814,0 -6.2372,-0.33168 -8.96721,-0.99504 -2.73005,-0.66336 -5.09179,-1.71472 -7.08524,-3.15407 -1.99348,-1.43934 -3.54376,-3.33989 -4.65086,-5.70164 -1.10711,-2.36174 -1.66066,-5.20383 -1.66065,-8.52628 -10e-6,-3.17375 0.6459,-5.90491 1.93771,-8.19347 1.2918,-2.28852 3.04481,-4.13388 5.25903,-5.53609 2.21419,-1.40215 4.79725,-2.43548 7.74917,-3.1 2.95188,-0.66446 6.05188,-0.9967 9.30001,-0.99674 1.03387,4e-5 2.10437,0.0558 3.2115,0.16725 1.10707,0.11154 2.15899,0.25908 3.15576,0.44262 0.99669,0.18361 1.86391,0.34973 2.60164,0.49837 0.73765,0.14869 1.25404,0.25907 1.54915,0.33111 l 0,-2.87869 c -3e-5,-1.6961 -0.18474,-3.37477 -0.55411,-5.03603 -0.36945,-1.66118 -1.03337,-3.13769 -1.99177,-4.42955 -0.95848,-1.29176 -2.26831,-2.32509 -3.92949,-3.1 -1.66125,-0.77481 -3.82084,-1.16224 -6.47876,-1.16229 -3.39454,5e-5 -6.36503,0.23994 -8.91146,0.71967 -2.54647,0.47983 -4.44701,0.97764 -5.70164,1.49341 l -1.21973,-8.52459 c 1.32896,-0.5901 3.54373,-1.16167 6.64431,-1.71472 3.10055,-0.55293 6.45846,-0.82942 10.07375,-0.82948 z"
       inkscape:connector-curvature="0" />
    <path
       id="path3004"
       style="font-size:110.71494293px;font-style:normal;font-variant:normal;font-weight:normal;font-stretch:normal;line-height:125%;letter-spacing:0px;word-spacing:0px;fill:#009688;fill-opacity:1;stroke:none;font-family:Ubuntu;-inkscape-font-specification:Ubuntu"
       d="m 572.83144,161.71076 c 4.20765,1e-5 7.32623,-0.55354 9.35576,-1.66066 2.02947,-1.10709 3.04422,-2.87924 3.04426,-5.31646 -4e-5,-2.50927 -0.9962,-4.50217 -2.98851,-5.9787 -1.99236,-1.4765 -5.27707,-3.13715 -9.85413,-4.98197 -2.21423,-0.88521 -4.33608,-1.78903 -6.36557,-2.71145 -2.02951,-0.92237 -3.78252,-2.01089 -5.25902,-3.26557 -1.47653,-1.25461 -2.6574,-2.76772 -3.54262,-4.53935 -0.88524,-1.77155 -1.32786,-3.94916 -1.32785,-6.53282 -1e-5,-5.09285 1.88195,-9.13384 5.64589,-12.12296 3.76392,-2.98901 8.89398,-4.48354 15.39022,-4.4836 1.62402,6e-5 3.24751,0.0918 4.87047,0.27537 1.62289,0.18363 3.13601,0.40494 4.53935,0.66392 1.40327,0.2591 2.63989,0.53615 3.70987,0.83117 1.0699,0.29514 1.89994,0.55305 2.49014,0.77374 l -1.88197,8.85909 c -1.10826,-0.59011 -2.84325,-1.19885 -5.20496,-1.82622 -2.36178,-0.62727 -5.20275,-0.94093 -8.5229,-0.94098 -2.87872,5e-5 -5.38857,0.57162 -7.52955,1.71472 -2.14102,1.14319 -3.21152,2.93336 -3.21151,5.37052 -10e-6,1.25469 0.23988,2.36179 0.71968,3.32131 0.47976,0.95961 1.21802,1.82682 2.21477,2.60164 0.99671,0.7749 2.23333,1.49457 3.70987,2.15903 1.47649,0.66452 3.24752,1.36505 5.31309,2.10158 2.73225,1.03393 5.16833,2.04924 7.30824,3.04594 2.13984,0.99677 3.96661,2.15962 5.48033,3.48857 1.51364,1.329 2.67649,2.93447 3.48856,4.81641 0.81199,1.88198 1.218,4.18798 1.21804,6.91799 -4e-5,5.31366 -1.97492,9.33606 -5.92464,12.06721 -3.94979,2.73116 -9.57823,4.09674 -16.88531,4.09674 -5.09292,0 -9.07872,-0.42403 -11.9574,-1.2721 -2.87871,-0.84807 -4.83388,-1.49397 -5.86552,-1.93771 l 1.88197,-8.85571 c 1.1803,0.4415 3.06226,1.10542 5.64589,1.99177 2.58361,0.88637 6.01529,1.32955 10.29506,1.32954 z"
       inkscape:connector-curvature="0" />
    <path
       id="path3006"
       style="font-size:110.71494293px;font-style:normal;font-variant:normal;font-weight:normal;font-stretch:normal;line-height:125%;letter-spacing:0px;word-spacing:0px;fill:#009688;fill-opacity:1;stroke:none;font-family:Ubuntu;-inkscape-font-specification:Ubuntu"
       d="m 608.73742,169.12712 0,-84.144437 10.29844,-1.770466 0,29.449203 c 1.91911,-0.73651 3.96719,-1.30808 6.14426,-1.71472 2.17701,-0.40652 4.33547,-0.6098 6.47538,-0.60986 4.57704,6e-5 8.3787,0.64596 11.40497,1.93771 3.02619,1.29187 5.44369,3.10006 7.2525,5.42459 1.8087,2.32463 3.08193,5.11097 3.81967,8.35903 0.73764,3.24815 1.10649,6.82849 1.10655,10.74105 l 0,32.3279 -10.29506,0 0,-30.11481 c -5e-5,-3.54316 -0.23994,-6.56939 -0.71968,-9.07871 -0.47982,-2.50925 -1.27327,-4.53875 -2.38033,-6.08851 -1.10714,-1.54968 -2.58366,-2.67536 -4.42954,-3.37706 -1.84596,-0.70161 -4.13394,-1.05244 -6.86393,-1.05249 -1.10827,5e-5 -2.25253,0.0738 -3.43282,0.22131 -1.18033,0.14759 -2.30602,0.31371 -3.37706,0.49837 -1.07109,0.18475 -2.03065,0.38804 -2.8787,0.60986 -0.84808,0.22192 -1.45682,0.40606 -1.82621,0.55243 l 0,47.82961 z"
       inkscape:connector-curvature="0" />
  </g>
</svg>
